<mxfile host="app.diagrams.net" modified="2024-01-25T22:58:55.399Z" agent="Mozilla/5.0 (Windows NT 10.0; Win64; x64) AppleWebKit/537.36 (KHTML, like Gecko) Chrome/120.0.0.0 Safari/537.36" etag="Ejx0jffAM8LYSvNVcNBL" version="22.1.21" type="github">
  <diagram id="zXYdlJMxpkLPpKTD0zcQ" name="ページ1">
    <mxGraphModel dx="1500" dy="796" grid="1" gridSize="10" guides="1" tooltips="1" connect="1" arrows="1" fold="1" page="1" pageScale="1" pageWidth="1169" pageHeight="827" math="0" shadow="0">
      <root>
        <mxCell id="0" />
        <mxCell id="1" parent="0" />
        <mxCell id="gSIg1-qY6fK0YbSR8IV2-5" value="&lt;b style=&quot;border-color: var(--border-color); font-size: 20px;&quot;&gt;服薬管理画面&lt;/b&gt;" style="rounded=0;whiteSpace=wrap;html=1;fontSize=16;verticalAlign=top;align=center;" vertex="1" parent="1">
          <mxGeometry x="400" y="797" width="160" height="200" as="geometry" />
        </mxCell>
        <mxCell id="gSIg1-qY6fK0YbSR8IV2-4" value="&lt;b style=&quot;border-color: var(--border-color); color: rgb(0, 0, 0); font-family: Helvetica; font-style: normal; font-variant-ligatures: normal; font-variant-caps: normal; letter-spacing: normal; orphans: 2; text-indent: 0px; text-transform: none; widows: 2; word-spacing: 0px; -webkit-text-stroke-width: 0px; background-color: initial; text-decoration-thickness: initial; text-decoration-style: initial; text-decoration-color: initial; font-size: 12px; text-align: justify;&quot;&gt;&lt;font style=&quot;border-color: var(--border-color); font-size: 20px;&quot;&gt;ホーム画面&lt;/font&gt;&lt;/b&gt;&lt;br&gt;" style="rounded=0;whiteSpace=wrap;html=1;fontSize=16;verticalAlign=top;" vertex="1" parent="1">
          <mxGeometry x="400" y="280" width="160" height="240" as="geometry" />
        </mxCell>
        <mxCell id="8WLKLdAXPGA9mwzkF5FM-1" value="&lt;div style=&quot;text-align: justify;&quot;&gt;&lt;span style=&quot;background-color: initial; font-size: 20px;&quot;&gt;&lt;b&gt;チャット画面&lt;/b&gt;&lt;/span&gt;&lt;/div&gt;" style="rounded=0;whiteSpace=wrap;html=1;fontSize=16;verticalAlign=top;" vertex="1" parent="1">
          <mxGeometry x="800" y="360" width="160" height="239" as="geometry" />
        </mxCell>
        <mxCell id="8WLKLdAXPGA9mwzkF5FM-7" value="&lt;b style=&quot;border-color: var(--border-color); background-color: initial; font-size: 12px; text-align: justify;&quot;&gt;&lt;font style=&quot;border-color: var(--border-color); font-size: 20px;&quot;&gt;新規登録画面&lt;/font&gt;&lt;/b&gt;" style="rounded=0;whiteSpace=wrap;html=1;fontSize=16;verticalAlign=top;" vertex="1" parent="1">
          <mxGeometry x="640" y="40" width="160" height="200" as="geometry" />
        </mxCell>
        <mxCell id="0rlgu-Swk3jwepfzvg8y-5" style="edgeStyle=orthogonalEdgeStyle;rounded=0;orthogonalLoop=1;jettySize=auto;html=1;entryX=1;entryY=0.5;entryDx=0;entryDy=0;" edge="1" parent="1" source="8WLKLdAXPGA9mwzkF5FM-14" target="8WLKLdAXPGA9mwzkF5FM-51">
          <mxGeometry relative="1" as="geometry" />
        </mxCell>
        <mxCell id="0rlgu-Swk3jwepfzvg8y-6" style="edgeStyle=orthogonalEdgeStyle;rounded=0;orthogonalLoop=1;jettySize=auto;html=1;entryX=0;entryY=0.5;entryDx=0;entryDy=0;" edge="1" parent="1" source="8WLKLdAXPGA9mwzkF5FM-14" target="8WLKLdAXPGA9mwzkF5FM-7">
          <mxGeometry relative="1" as="geometry" />
        </mxCell>
        <mxCell id="8WLKLdAXPGA9mwzkF5FM-14" value="&lt;b style=&quot;border-color: var(--border-color); font-size: 12px; text-align: justify; background-color: initial;&quot;&gt;&lt;font style=&quot;border-color: var(--border-color); font-size: 20px;&quot;&gt;トップ画面&lt;/font&gt;&lt;/b&gt;" style="rounded=0;whiteSpace=wrap;html=1;fontSize=16;verticalAlign=top;" vertex="1" parent="1">
          <mxGeometry x="400" y="40" width="160" height="200" as="geometry" />
        </mxCell>
        <mxCell id="8WLKLdAXPGA9mwzkF5FM-15" value="日時の表示" style="rounded=0;whiteSpace=wrap;html=1;fillColor=#FFFFFF;strokeColor=#000000;" vertex="1" parent="1">
          <mxGeometry x="415" y="310" width="130" height="30" as="geometry" />
        </mxCell>
        <mxCell id="0rlgu-Swk3jwepfzvg8y-13" style="edgeStyle=orthogonalEdgeStyle;rounded=0;orthogonalLoop=1;jettySize=auto;html=1;entryX=0;entryY=0.5;entryDx=0;entryDy=0;" edge="1" parent="1" source="8WLKLdAXPGA9mwzkF5FM-19" target="8WLKLdAXPGA9mwzkF5FM-44">
          <mxGeometry relative="1" as="geometry" />
        </mxCell>
        <mxCell id="8WLKLdAXPGA9mwzkF5FM-19" value="体調選択タップボタン" style="rounded=0;whiteSpace=wrap;html=1;fillColor=#FFFFFF;strokeColor=#000000;" vertex="1" parent="1">
          <mxGeometry x="415" y="350" width="130" height="30" as="geometry" />
        </mxCell>
        <mxCell id="8WLKLdAXPGA9mwzkF5FM-26" value="ログイン" style="rounded=0;whiteSpace=wrap;html=1;fillColor=#FFFFFF;strokeColor=#000000;" vertex="1" parent="1">
          <mxGeometry x="415" y="160" width="130" height="30" as="geometry" />
        </mxCell>
        <mxCell id="8WLKLdAXPGA9mwzkF5FM-28" value="&lt;font style=&quot;font-size: 12px;&quot;&gt;新規登録&lt;/font&gt;" style="rounded=0;whiteSpace=wrap;html=1;fillColor=#FFFFFF;strokeColor=#000000;" vertex="1" parent="1">
          <mxGeometry x="415" y="100" width="130" height="30" as="geometry" />
        </mxCell>
        <mxCell id="8WLKLdAXPGA9mwzkF5FM-41" value="内服薬時間表示" style="rounded=0;whiteSpace=wrap;html=1;fillColor=#FFFFFF;strokeColor=#000000;" vertex="1" parent="1">
          <mxGeometry x="415" y="880" width="130" height="30" as="geometry" />
        </mxCell>
        <mxCell id="8WLKLdAXPGA9mwzkF5FM-44" value="&lt;span style=&quot;border-color: var(--border-color); text-align: justify; background-color: initial;&quot;&gt;&lt;font style=&quot;border-color: var(--border-color); font-size: 12px;&quot;&gt;登録者へ通知&lt;/font&gt;&lt;/span&gt;" style="rounded=0;whiteSpace=wrap;html=1;fontSize=16;fillColor=#FFFFFF;strokeColor=#000000;" vertex="1" parent="1">
          <mxGeometry x="640" y="350" width="130" height="30" as="geometry" />
        </mxCell>
        <mxCell id="8WLKLdAXPGA9mwzkF5FM-46" value="&lt;font style=&quot;font-size: 12px;&quot;&gt;登録ボタン&lt;/font&gt;" style="rounded=0;whiteSpace=wrap;html=1;fillColor=#FFFFFF;strokeColor=#000000;" vertex="1" parent="1">
          <mxGeometry x="655" y="200" width="130" height="30" as="geometry" />
        </mxCell>
        <mxCell id="8WLKLdAXPGA9mwzkF5FM-47" value="メールアドレス入力欄" style="rounded=0;whiteSpace=wrap;html=1;fillColor=#FFFFFF;strokeColor=#000000;" vertex="1" parent="1">
          <mxGeometry x="655" y="120" width="130" height="30" as="geometry" />
        </mxCell>
        <mxCell id="8WLKLdAXPGA9mwzkF5FM-48" value="&lt;font style=&quot;font-size: 12px;&quot;&gt;ユーザー名入力欄&lt;/font&gt;" style="rounded=0;whiteSpace=wrap;html=1;fillColor=#FFFFFF;strokeColor=#000000;" vertex="1" parent="1">
          <mxGeometry x="655" y="80" width="130" height="30" as="geometry" />
        </mxCell>
        <mxCell id="8WLKLdAXPGA9mwzkF5FM-49" value="パスワード入力欄" style="rounded=0;whiteSpace=wrap;html=1;fillColor=#FFFFFF;strokeColor=#000000;" vertex="1" parent="1">
          <mxGeometry x="655" y="160" width="130" height="30" as="geometry" />
        </mxCell>
        <mxCell id="8WLKLdAXPGA9mwzkF5FM-50" value="" style="group" vertex="1" connectable="0" parent="1">
          <mxGeometry x="160" y="40" width="160" height="200" as="geometry" />
        </mxCell>
        <mxCell id="8WLKLdAXPGA9mwzkF5FM-51" value="&lt;b style=&quot;border-color: var(--border-color); font-size: 12px; text-align: justify; background-color: initial;&quot;&gt;&lt;font style=&quot;border-color: var(--border-color); font-size: 20px;&quot;&gt;ログイン画面&lt;/font&gt;&lt;/b&gt;" style="rounded=0;whiteSpace=wrap;html=1;fontSize=16;verticalAlign=top;" vertex="1" parent="8WLKLdAXPGA9mwzkF5FM-50">
          <mxGeometry width="160" height="200" as="geometry" />
        </mxCell>
        <mxCell id="8WLKLdAXPGA9mwzkF5FM-52" value="ログインボタン" style="rounded=0;whiteSpace=wrap;html=1;fillColor=#FFFFFF;strokeColor=#000000;" vertex="1" parent="8WLKLdAXPGA9mwzkF5FM-50">
          <mxGeometry x="15" y="150" width="130" height="30" as="geometry" />
        </mxCell>
        <mxCell id="8WLKLdAXPGA9mwzkF5FM-53" value="パスワード入力欄" style="rounded=0;whiteSpace=wrap;html=1;fillColor=#FFFFFF;strokeColor=#000000;" vertex="1" parent="8WLKLdAXPGA9mwzkF5FM-50">
          <mxGeometry x="15" y="100" width="130" height="30" as="geometry" />
        </mxCell>
        <mxCell id="8WLKLdAXPGA9mwzkF5FM-54" value="&lt;font style=&quot;font-size: 12px;&quot;&gt;ユーザー名入力欄&lt;/font&gt;" style="rounded=0;whiteSpace=wrap;html=1;fillColor=#FFFFFF;strokeColor=#000000;" vertex="1" parent="8WLKLdAXPGA9mwzkF5FM-50">
          <mxGeometry x="15" y="50" width="130" height="30" as="geometry" />
        </mxCell>
        <mxCell id="hMFui25325vpyBuBLBgp-21" style="edgeStyle=orthogonalEdgeStyle;rounded=0;orthogonalLoop=1;jettySize=auto;html=1;" edge="1" parent="1" source="8WLKLdAXPGA9mwzkF5FM-56">
          <mxGeometry relative="1" as="geometry">
            <mxPoint x="360" y="560" as="targetPoint" />
          </mxGeometry>
        </mxCell>
        <mxCell id="8WLKLdAXPGA9mwzkF5FM-56" value="予定確認" style="rounded=0;whiteSpace=wrap;html=1;fillColor=#FFFFFF;strokeColor=#000000;" vertex="1" parent="1">
          <mxGeometry x="415" y="390" width="130" height="30" as="geometry" />
        </mxCell>
        <mxCell id="hMFui25325vpyBuBLBgp-44" style="edgeStyle=orthogonalEdgeStyle;rounded=0;orthogonalLoop=1;jettySize=auto;html=1;" edge="1" parent="1" source="8WLKLdAXPGA9mwzkF5FM-57">
          <mxGeometry relative="1" as="geometry">
            <mxPoint x="600" y="560" as="targetPoint" />
            <Array as="points">
              <mxPoint x="600" y="455" />
            </Array>
          </mxGeometry>
        </mxCell>
        <mxCell id="8WLKLdAXPGA9mwzkF5FM-57" value="メッセージ確認" style="rounded=0;whiteSpace=wrap;html=1;fillColor=#FFFFFF;strokeColor=#000000;" vertex="1" parent="1">
          <mxGeometry x="415" y="440" width="130" height="30" as="geometry" />
        </mxCell>
        <mxCell id="hMFui25325vpyBuBLBgp-8" value="服薬チェック欄" style="rounded=0;whiteSpace=wrap;html=1;fillColor=#FFFFFF;strokeColor=#000000;" vertex="1" parent="1">
          <mxGeometry x="415" y="920" width="130" height="30" as="geometry" />
        </mxCell>
        <mxCell id="hMFui25325vpyBuBLBgp-137" style="edgeStyle=orthogonalEdgeStyle;rounded=0;orthogonalLoop=1;jettySize=auto;html=1;" edge="1" parent="1" source="hMFui25325vpyBuBLBgp-9" target="hMFui25325vpyBuBLBgp-123">
          <mxGeometry relative="1" as="geometry" />
        </mxCell>
        <mxCell id="hMFui25325vpyBuBLBgp-9" value="内服薬の追加・変更" style="rounded=0;whiteSpace=wrap;html=1;fillColor=#FFFFFF;strokeColor=#000000;" vertex="1" parent="1">
          <mxGeometry x="415" y="960" width="130" height="30" as="geometry" />
        </mxCell>
        <mxCell id="hMFui25325vpyBuBLBgp-15" value="" style="group" vertex="1" connectable="0" parent="1">
          <mxGeometry x="1080" y="640" width="160" height="200" as="geometry" />
        </mxCell>
        <mxCell id="8WLKLdAXPGA9mwzkF5FM-10" value="&lt;b style=&quot;border-color: var(--border-color); font-size: 12px; text-align: justify; background-color: initial;&quot;&gt;&lt;font style=&quot;border-color: var(--border-color); font-size: 20px;&quot;&gt;登録情報変更&lt;br&gt;画面&lt;/font&gt;&lt;/b&gt;" style="rounded=0;whiteSpace=wrap;html=1;fontSize=16;verticalAlign=top;" vertex="1" parent="hMFui25325vpyBuBLBgp-15">
          <mxGeometry x="-40" width="160" height="200" as="geometry" />
        </mxCell>
        <mxCell id="8WLKLdAXPGA9mwzkF5FM-21" value="ニックネーム入力欄" style="rounded=0;whiteSpace=wrap;html=1;fillColor=#FFFFFF;strokeColor=#000000;" vertex="1" parent="hMFui25325vpyBuBLBgp-15">
          <mxGeometry x="-25" y="70" width="130" height="30" as="geometry" />
        </mxCell>
        <mxCell id="8WLKLdAXPGA9mwzkF5FM-29" style="edgeStyle=none;curved=1;rounded=0;orthogonalLoop=1;jettySize=auto;html=1;entryX=0.5;entryY=0;entryDx=0;entryDy=0;fontSize=12;startSize=8;endSize=8;" edge="1" parent="hMFui25325vpyBuBLBgp-15" source="8WLKLdAXPGA9mwzkF5FM-10" target="8WLKLdAXPGA9mwzkF5FM-10">
          <mxGeometry relative="1" as="geometry" />
        </mxCell>
        <mxCell id="hMFui25325vpyBuBLBgp-99" value="変更ボタン" style="rounded=0;whiteSpace=wrap;html=1;fillColor=#FFFFFF;strokeColor=#000000;" vertex="1" parent="hMFui25325vpyBuBLBgp-15">
          <mxGeometry x="-25" y="110" width="130" height="30" as="geometry" />
        </mxCell>
        <mxCell id="hMFui25325vpyBuBLBgp-16" value="" style="group" vertex="1" connectable="0" parent="1">
          <mxGeometry x="280" y="560" width="160" height="200" as="geometry" />
        </mxCell>
        <mxCell id="8WLKLdAXPGA9mwzkF5FM-9" value="&lt;b style=&quot;border-color: var(--border-color); font-size: 20px; text-align: justify;&quot;&gt;カレンダー画面&lt;/b&gt;" style="rounded=0;whiteSpace=wrap;html=1;fontSize=16;verticalAlign=top;" vertex="1" parent="hMFui25325vpyBuBLBgp-16">
          <mxGeometry width="160" height="200" as="geometry" />
        </mxCell>
        <mxCell id="8WLKLdAXPGA9mwzkF5FM-16" value="カレンダー表示" style="rounded=0;whiteSpace=wrap;html=1;fillColor=#FFFFFF;strokeColor=#000000;" vertex="1" parent="hMFui25325vpyBuBLBgp-16">
          <mxGeometry x="15" y="70" width="130" height="30" as="geometry" />
        </mxCell>
        <mxCell id="hMFui25325vpyBuBLBgp-135" style="edgeStyle=orthogonalEdgeStyle;rounded=0;orthogonalLoop=1;jettySize=auto;html=1;" edge="1" parent="hMFui25325vpyBuBLBgp-16" source="hMFui25325vpyBuBLBgp-104">
          <mxGeometry relative="1" as="geometry">
            <mxPoint x="-80" y="145.00000000000023" as="targetPoint" />
          </mxGeometry>
        </mxCell>
        <mxCell id="hMFui25325vpyBuBLBgp-104" value="日付選択" style="rounded=0;whiteSpace=wrap;html=1;fillColor=#FFFFFF;strokeColor=#000000;" vertex="1" parent="hMFui25325vpyBuBLBgp-16">
          <mxGeometry x="15" y="130" width="130" height="30" as="geometry" />
        </mxCell>
        <mxCell id="hMFui25325vpyBuBLBgp-46" value="スタンプ一覧" style="rounded=0;whiteSpace=wrap;html=1;fillColor=#FFFFFF;strokeColor=#000000;" vertex="1" parent="1">
          <mxGeometry x="815" y="530" width="130" height="30" as="geometry" />
        </mxCell>
        <mxCell id="hMFui25325vpyBuBLBgp-59" value="" style="group" vertex="1" connectable="0" parent="1">
          <mxGeometry x="815" y="1150" width="160" height="200" as="geometry" />
        </mxCell>
        <mxCell id="hMFui25325vpyBuBLBgp-35" value="&lt;div style=&quot;text-align: justify;&quot;&gt;&lt;span style=&quot;background-color: initial; font-size: 20px;&quot;&gt;&lt;b&gt;通知者一覧画面&lt;/b&gt;&lt;/span&gt;&lt;/div&gt;" style="rounded=0;whiteSpace=wrap;html=1;fontSize=16;verticalAlign=top;" vertex="1" parent="hMFui25325vpyBuBLBgp-59">
          <mxGeometry x="-15" y="10" width="160" height="200" as="geometry" />
        </mxCell>
        <mxCell id="hMFui25325vpyBuBLBgp-24" value="通知者設定欄" style="rounded=0;whiteSpace=wrap;html=1;fillColor=#FFFFFF;strokeColor=#000000;" vertex="1" parent="hMFui25325vpyBuBLBgp-59">
          <mxGeometry y="110" width="130" height="30" as="geometry" />
        </mxCell>
        <mxCell id="hMFui25325vpyBuBLBgp-43" value="変更内容登録ボタン" style="rounded=0;whiteSpace=wrap;html=1;fillColor=#FFFFFF;strokeColor=#000000;" vertex="1" parent="hMFui25325vpyBuBLBgp-59">
          <mxGeometry y="160" width="130" height="30" as="geometry" />
        </mxCell>
        <mxCell id="hMFui25325vpyBuBLBgp-48" value="通知対象者一覧" style="rounded=0;whiteSpace=wrap;html=1;fillColor=#FFFFFF;strokeColor=#000000;" vertex="1" parent="hMFui25325vpyBuBLBgp-59">
          <mxGeometry y="61" width="130" height="30" as="geometry" />
        </mxCell>
        <mxCell id="hMFui25325vpyBuBLBgp-47" value="送信ボタン" style="rounded=0;whiteSpace=wrap;html=1;fillColor=#FFFFFF;strokeColor=#000000;" vertex="1" parent="1">
          <mxGeometry x="815" y="563" width="130" height="30" as="geometry" />
        </mxCell>
        <mxCell id="hMFui25325vpyBuBLBgp-87" value="" style="group" vertex="1" connectable="0" parent="1">
          <mxGeometry x="520" y="563" width="160" height="200" as="geometry" />
        </mxCell>
        <mxCell id="hMFui25325vpyBuBLBgp-82" value="&lt;b style=&quot;border-color: var(--border-color); font-size: 19px; text-align: justify;&quot;&gt;フレンド管理画面&lt;/b&gt;" style="rounded=0;whiteSpace=wrap;html=1;fontSize=16;verticalAlign=top;container=0;" vertex="1" parent="hMFui25325vpyBuBLBgp-87">
          <mxGeometry width="160" height="200" as="geometry" />
        </mxCell>
        <mxCell id="hMFui25325vpyBuBLBgp-83" value="新着メッセージの確認" style="rounded=0;whiteSpace=wrap;html=1;fillColor=#FFFFFF;strokeColor=#000000;container=0;" vertex="1" parent="hMFui25325vpyBuBLBgp-87">
          <mxGeometry x="15" y="45" width="130" height="30" as="geometry" />
        </mxCell>
        <mxCell id="hMFui25325vpyBuBLBgp-91" style="edgeStyle=orthogonalEdgeStyle;rounded=0;orthogonalLoop=1;jettySize=auto;html=1;" edge="1" parent="hMFui25325vpyBuBLBgp-87" source="hMFui25325vpyBuBLBgp-84">
          <mxGeometry relative="1" as="geometry">
            <mxPoint x="280" y="239.99999999999977" as="targetPoint" />
            <Array as="points">
              <mxPoint x="240" y="100" />
              <mxPoint x="240" y="240" />
            </Array>
          </mxGeometry>
        </mxCell>
        <mxCell id="hMFui25325vpyBuBLBgp-84" value="フレンドリスト" style="rounded=0;whiteSpace=wrap;html=1;fillColor=#FFFFFF;strokeColor=#000000;container=0;" vertex="1" parent="hMFui25325vpyBuBLBgp-87">
          <mxGeometry x="15" y="85" width="130" height="30" as="geometry" />
        </mxCell>
        <mxCell id="hMFui25325vpyBuBLBgp-93" style="edgeStyle=orthogonalEdgeStyle;rounded=0;orthogonalLoop=1;jettySize=auto;html=1;" edge="1" parent="hMFui25325vpyBuBLBgp-87" source="hMFui25325vpyBuBLBgp-85">
          <mxGeometry relative="1" as="geometry">
            <mxPoint x="280" y="479.9999999999998" as="targetPoint" />
            <Array as="points">
              <mxPoint x="200" y="136" />
              <mxPoint x="200" y="480" />
            </Array>
          </mxGeometry>
        </mxCell>
        <mxCell id="hMFui25325vpyBuBLBgp-85" value="フレンド登録" style="rounded=0;whiteSpace=wrap;html=1;fillColor=#FFFFFF;strokeColor=#000000;container=0;" vertex="1" parent="hMFui25325vpyBuBLBgp-87">
          <mxGeometry x="15" y="121" width="130" height="30" as="geometry" />
        </mxCell>
        <mxCell id="hMFui25325vpyBuBLBgp-86" value="通知者一覧" style="rounded=0;whiteSpace=wrap;html=1;fillColor=#FFFFFF;strokeColor=#000000;container=0;" vertex="1" parent="hMFui25325vpyBuBLBgp-87">
          <mxGeometry x="15" y="160" width="130" height="30" as="geometry" />
        </mxCell>
        <mxCell id="hMFui25325vpyBuBLBgp-88" value="" style="group" vertex="1" connectable="0" parent="1">
          <mxGeometry x="800" y="640" width="160" height="200" as="geometry" />
        </mxCell>
        <mxCell id="hMFui25325vpyBuBLBgp-64" value="&lt;div style=&quot;font-size: 19px;&quot;&gt;&lt;font style=&quot;font-size: 19px;&quot;&gt;&lt;b style=&quot;&quot;&gt;フレンド&lt;/b&gt;&lt;b style=&quot;background-color: initial;&quot;&gt;リスト&lt;/b&gt;&lt;/font&gt;&lt;/div&gt;&lt;div style=&quot;font-size: 19px;&quot;&gt;&lt;b style=&quot;background-color: initial;&quot;&gt;&lt;font style=&quot;font-size: 19px;&quot;&gt;画面&lt;/font&gt;&lt;/b&gt;&lt;/div&gt;" style="rounded=0;whiteSpace=wrap;html=1;fontSize=16;verticalAlign=top;align=center;" vertex="1" parent="hMFui25325vpyBuBLBgp-88">
          <mxGeometry width="160" height="200" as="geometry" />
        </mxCell>
        <mxCell id="hMFui25325vpyBuBLBgp-77" value="フレンド一覧表示" style="rounded=0;whiteSpace=wrap;html=1;fillColor=#FFFFFF;strokeColor=#000000;" vertex="1" parent="hMFui25325vpyBuBLBgp-88">
          <mxGeometry x="15" y="50" width="130" height="30" as="geometry" />
        </mxCell>
        <mxCell id="hMFui25325vpyBuBLBgp-80" value="チャット移行ボタン" style="rounded=0;whiteSpace=wrap;html=1;fillColor=#FFFFFF;strokeColor=#000000;" vertex="1" parent="hMFui25325vpyBuBLBgp-88">
          <mxGeometry x="15" y="120" width="130" height="30" as="geometry" />
        </mxCell>
        <mxCell id="hMFui25325vpyBuBLBgp-81" value="登録情報変更ボタン" style="rounded=0;whiteSpace=wrap;html=1;fillColor=#FFFFFF;strokeColor=#000000;" vertex="1" parent="hMFui25325vpyBuBLBgp-88">
          <mxGeometry x="15" y="160" width="130" height="30" as="geometry" />
        </mxCell>
        <mxCell id="hMFui25325vpyBuBLBgp-105" value="フレンド選択" style="rounded=0;whiteSpace=wrap;html=1;fillColor=#FFFFFF;strokeColor=#000000;" vertex="1" parent="hMFui25325vpyBuBLBgp-88">
          <mxGeometry x="15" y="85" width="130" height="30" as="geometry" />
        </mxCell>
        <mxCell id="hMFui25325vpyBuBLBgp-89" style="edgeStyle=orthogonalEdgeStyle;rounded=0;orthogonalLoop=1;jettySize=auto;html=1;" edge="1" parent="1" source="hMFui25325vpyBuBLBgp-83" target="8WLKLdAXPGA9mwzkF5FM-1">
          <mxGeometry relative="1" as="geometry" />
        </mxCell>
        <mxCell id="hMFui25325vpyBuBLBgp-92" style="edgeStyle=orthogonalEdgeStyle;rounded=0;orthogonalLoop=1;jettySize=auto;html=1;entryX=1.011;entryY=0.399;entryDx=0;entryDy=0;entryPerimeter=0;" edge="1" parent="1" source="hMFui25325vpyBuBLBgp-80" target="8WLKLdAXPGA9mwzkF5FM-1">
          <mxGeometry relative="1" as="geometry">
            <Array as="points">
              <mxPoint x="1000" y="780" />
              <mxPoint x="1000" y="455" />
            </Array>
          </mxGeometry>
        </mxCell>
        <mxCell id="hMFui25325vpyBuBLBgp-94" style="edgeStyle=orthogonalEdgeStyle;rounded=0;orthogonalLoop=1;jettySize=auto;html=1;entryX=0.018;entryY=0.439;entryDx=0;entryDy=0;entryPerimeter=0;" edge="1" parent="1" source="hMFui25325vpyBuBLBgp-86" target="hMFui25325vpyBuBLBgp-35">
          <mxGeometry relative="1" as="geometry">
            <Array as="points">
              <mxPoint x="700" y="740" />
              <mxPoint x="700" y="1248" />
            </Array>
          </mxGeometry>
        </mxCell>
        <mxCell id="hMFui25325vpyBuBLBgp-95" style="edgeStyle=orthogonalEdgeStyle;rounded=0;orthogonalLoop=1;jettySize=auto;html=1;entryX=0;entryY=0.875;entryDx=0;entryDy=0;entryPerimeter=0;" edge="1" parent="1" source="hMFui25325vpyBuBLBgp-81" target="8WLKLdAXPGA9mwzkF5FM-10">
          <mxGeometry relative="1" as="geometry" />
        </mxCell>
        <mxCell id="8WLKLdAXPGA9mwzkF5FM-59" value="&lt;div style=&quot;text-align: justify;&quot;&gt;&lt;span style=&quot;background-color: initial;&quot;&gt;&lt;b style=&quot;&quot;&gt;&lt;font style=&quot;font-size: 19px;&quot;&gt;フレンド登録画面&lt;/font&gt;&lt;/b&gt;&lt;/span&gt;&lt;/div&gt;" style="rounded=0;whiteSpace=wrap;html=1;fontSize=16;verticalAlign=top;container=0;" vertex="1" parent="1">
          <mxGeometry x="800" y="880" width="160" height="240" as="geometry" />
        </mxCell>
        <mxCell id="8WLKLdAXPGA9mwzkF5FM-60" value="検索ボタン" style="rounded=0;whiteSpace=wrap;html=1;fillColor=#FFFFFF;strokeColor=#000000;container=0;" vertex="1" parent="1">
          <mxGeometry x="815" y="960" width="130" height="30" as="geometry" />
        </mxCell>
        <mxCell id="0rlgu-Swk3jwepfzvg8y-2" value="ユーザー名・IⅮの入力" style="rounded=0;whiteSpace=wrap;html=1;fillColor=#FFFFFF;strokeColor=#000000;container=0;" vertex="1" parent="1">
          <mxGeometry x="815" y="915" width="130" height="30" as="geometry" />
        </mxCell>
        <mxCell id="hMFui25325vpyBuBLBgp-34" value="通知者設定欄" style="rounded=0;whiteSpace=wrap;html=1;fillColor=#FFFFFF;strokeColor=#000000;container=0;" vertex="1" parent="1">
          <mxGeometry x="815" y="1040" width="130" height="30" as="geometry" />
        </mxCell>
        <mxCell id="8WLKLdAXPGA9mwzkF5FM-62" value="登録ボタン" style="rounded=0;whiteSpace=wrap;html=1;fillColor=#FFFFFF;strokeColor=#000000;container=0;" vertex="1" parent="1">
          <mxGeometry x="815" y="1080" width="130" height="30" as="geometry" />
        </mxCell>
        <mxCell id="hMFui25325vpyBuBLBgp-96" value="ニックネーム入力欄" style="rounded=0;whiteSpace=wrap;html=1;fillColor=#FFFFFF;strokeColor=#000000;" vertex="1" parent="1">
          <mxGeometry x="815" y="1000" width="130" height="30" as="geometry" />
        </mxCell>
        <mxCell id="8WLKLdAXPGA9mwzkF5FM-17" value="フレンド削除ボタン" style="rounded=0;whiteSpace=wrap;html=1;fillColor=#FFFFFF;strokeColor=#000000;" vertex="1" parent="1">
          <mxGeometry x="1055" y="797" width="130" height="30" as="geometry" />
        </mxCell>
        <mxCell id="hMFui25325vpyBuBLBgp-108" value="" style="group" vertex="1" connectable="0" parent="1">
          <mxGeometry x="40" y="560" width="160" height="360" as="geometry" />
        </mxCell>
        <mxCell id="0rlgu-Swk3jwepfzvg8y-1" value="&lt;div style=&quot;&quot;&gt;&lt;b style=&quot;border-color: var(--border-color); font-size: 20px;&quot;&gt;予定の確認&lt;/b&gt;&lt;/div&gt;&lt;div style=&quot;&quot;&gt;&lt;b style=&quot;border-color: var(--border-color); font-size: 20px;&quot;&gt;・&lt;/b&gt;&lt;b style=&quot;background-color: initial; border-color: var(--border-color); font-size: 20px;&quot;&gt;管理&lt;/b&gt;&lt;b style=&quot;background-color: initial; border-color: var(--border-color); font-size: 20px;&quot;&gt;画面&lt;/b&gt;&lt;/div&gt;" style="rounded=0;whiteSpace=wrap;html=1;fontSize=16;verticalAlign=top;" vertex="1" parent="hMFui25325vpyBuBLBgp-108">
          <mxGeometry width="160" height="359.9999999999999" as="geometry" />
        </mxCell>
        <mxCell id="8WLKLdAXPGA9mwzkF5FM-40" value="予定の表示" style="rounded=0;whiteSpace=wrap;html=1;fillColor=#FFFFFF;strokeColor=#000000;" vertex="1" parent="hMFui25325vpyBuBLBgp-108">
          <mxGeometry x="15" y="59.624999999999986" width="130" height="33.75" as="geometry" />
        </mxCell>
        <mxCell id="hMFui25325vpyBuBLBgp-6" value="予定の内容入力欄" style="rounded=0;whiteSpace=wrap;html=1;fillColor=#FFFFFF;strokeColor=#000000;" vertex="1" parent="hMFui25325vpyBuBLBgp-108">
          <mxGeometry x="15" y="191.24999999999994" width="130" height="33.75" as="geometry" />
        </mxCell>
        <mxCell id="hMFui25325vpyBuBLBgp-7" value="登録ボタン" style="rounded=0;whiteSpace=wrap;html=1;fillColor=#FFFFFF;strokeColor=#000000;" vertex="1" parent="hMFui25325vpyBuBLBgp-108">
          <mxGeometry x="15" y="270" width="130" height="33.75" as="geometry" />
        </mxCell>
        <mxCell id="hMFui25325vpyBuBLBgp-101" value="削除ボタン" style="rounded=0;whiteSpace=wrap;html=1;fillColor=#FFFFFF;strokeColor=#000000;" vertex="1" parent="hMFui25325vpyBuBLBgp-108">
          <mxGeometry x="15" y="314.9999999999999" width="130" height="33.75" as="geometry" />
        </mxCell>
        <mxCell id="hMFui25325vpyBuBLBgp-102" value="新規入力ボタン" style="rounded=0;whiteSpace=wrap;html=1;fillColor=#FFFFFF;strokeColor=#000000;" vertex="1" parent="hMFui25325vpyBuBLBgp-108">
          <mxGeometry x="15" y="146.24999999999994" width="130" height="33.75" as="geometry" />
        </mxCell>
        <mxCell id="hMFui25325vpyBuBLBgp-139" value="予定の日時選択" style="rounded=0;whiteSpace=wrap;html=1;fillColor=#FFFFFF;strokeColor=#000000;" vertex="1" parent="hMFui25325vpyBuBLBgp-108">
          <mxGeometry x="15" y="233.24999999999994" width="130" height="33.75" as="geometry" />
        </mxCell>
        <mxCell id="hMFui25325vpyBuBLBgp-138" value="予定の選択" style="rounded=0;whiteSpace=wrap;html=1;fillColor=#FFFFFF;strokeColor=#000000;" vertex="1" parent="hMFui25325vpyBuBLBgp-108">
          <mxGeometry x="15" y="101.24999999999997" width="130" height="33.75" as="geometry" />
        </mxCell>
        <mxCell id="hMFui25325vpyBuBLBgp-121" style="edgeStyle=orthogonalEdgeStyle;rounded=0;orthogonalLoop=1;jettySize=auto;html=1;entryX=0.5;entryY=0;entryDx=0;entryDy=0;" edge="1" parent="1" source="hMFui25325vpyBuBLBgp-115" target="gSIg1-qY6fK0YbSR8IV2-5">
          <mxGeometry relative="1" as="geometry" />
        </mxCell>
        <mxCell id="hMFui25325vpyBuBLBgp-115" value="服薬確認" style="rounded=0;whiteSpace=wrap;html=1;fillColor=#FFFFFF;strokeColor=#000000;" vertex="1" parent="1">
          <mxGeometry x="415" y="484" width="130" height="30" as="geometry" />
        </mxCell>
        <mxCell id="hMFui25325vpyBuBLBgp-117" style="edgeStyle=orthogonalEdgeStyle;rounded=0;orthogonalLoop=1;jettySize=auto;html=1;entryX=1.018;entryY=0.171;entryDx=0;entryDy=0;entryPerimeter=0;" edge="1" parent="1" source="8WLKLdAXPGA9mwzkF5FM-7" target="gSIg1-qY6fK0YbSR8IV2-4">
          <mxGeometry relative="1" as="geometry">
            <Array as="points">
              <mxPoint x="720" y="321" />
            </Array>
          </mxGeometry>
        </mxCell>
        <mxCell id="hMFui25325vpyBuBLBgp-120" style="edgeStyle=orthogonalEdgeStyle;rounded=0;orthogonalLoop=1;jettySize=auto;html=1;" edge="1" parent="1" source="8WLKLdAXPGA9mwzkF5FM-51">
          <mxGeometry relative="1" as="geometry">
            <mxPoint x="400" y="320" as="targetPoint" />
            <Array as="points">
              <mxPoint x="240" y="320" />
            </Array>
          </mxGeometry>
        </mxCell>
        <mxCell id="hMFui25325vpyBuBLBgp-122" value="服薬内容表示" style="rounded=0;whiteSpace=wrap;html=1;fillColor=#FFFFFF;strokeColor=#000000;" vertex="1" parent="1">
          <mxGeometry x="415" y="840" width="130" height="30" as="geometry" />
        </mxCell>
        <mxCell id="hMFui25325vpyBuBLBgp-123" value="&lt;b style=&quot;border-color: var(--border-color); font-size: 20px;&quot;&gt;服薬変更画面&lt;/b&gt;" style="rounded=0;whiteSpace=wrap;html=1;fontSize=16;verticalAlign=top;align=center;" vertex="1" parent="1">
          <mxGeometry x="400" y="1080" width="160" height="320" as="geometry" />
        </mxCell>
        <mxCell id="hMFui25325vpyBuBLBgp-124" value="新規入力欄" style="rounded=0;whiteSpace=wrap;html=1;fillColor=#FFFFFF;strokeColor=#000000;" vertex="1" parent="1">
          <mxGeometry x="415" y="1241" width="130" height="30" as="geometry" />
        </mxCell>
        <mxCell id="hMFui25325vpyBuBLBgp-125" value="薬選択" style="rounded=0;whiteSpace=wrap;html=1;fillColor=#FFFFFF;strokeColor=#000000;" vertex="1" parent="1">
          <mxGeometry x="415" y="1160" width="130" height="30" as="geometry" />
        </mxCell>
        <mxCell id="hMFui25325vpyBuBLBgp-126" value="変更内容登録ボタン" style="rounded=0;whiteSpace=wrap;html=1;fillColor=#FFFFFF;strokeColor=#000000;" vertex="1" parent="1">
          <mxGeometry x="415" y="1360" width="130" height="30" as="geometry" />
        </mxCell>
        <mxCell id="hMFui25325vpyBuBLBgp-127" value="薬一覧" style="rounded=0;whiteSpace=wrap;html=1;fillColor=#FFFFFF;strokeColor=#000000;" vertex="1" parent="1">
          <mxGeometry x="415" y="1120" width="130" height="30" as="geometry" />
        </mxCell>
        <mxCell id="hMFui25325vpyBuBLBgp-128" value="削除ボタン" style="rounded=0;whiteSpace=wrap;html=1;fillColor=#FFFFFF;strokeColor=#000000;" vertex="1" parent="1">
          <mxGeometry x="415" y="1200" width="130" height="30" as="geometry" />
        </mxCell>
        <mxCell id="hMFui25325vpyBuBLBgp-129" value="服薬タイミング選択" style="rounded=0;whiteSpace=wrap;html=1;fillColor=#FFFFFF;strokeColor=#000000;" vertex="1" parent="1">
          <mxGeometry x="415" y="1280" width="130" height="30" as="geometry" />
        </mxCell>
        <mxCell id="hMFui25325vpyBuBLBgp-130" value="服薬量選択" style="rounded=0;whiteSpace=wrap;html=1;fillColor=#FFFFFF;strokeColor=#000000;" vertex="1" parent="1">
          <mxGeometry x="415" y="1320" width="130" height="30" as="geometry" />
        </mxCell>
        <mxCell id="hMFui25325vpyBuBLBgp-131" value="フレンド名表示" style="rounded=0;whiteSpace=wrap;html=1;fillColor=#FFFFFF;strokeColor=#000000;" vertex="1" parent="1">
          <mxGeometry x="815" y="413" width="130" height="30" as="geometry" />
        </mxCell>
        <mxCell id="hMFui25325vpyBuBLBgp-132" value="送受信内容表示" style="rounded=0;whiteSpace=wrap;html=1;fillColor=#FFFFFF;strokeColor=#000000;" vertex="1" parent="1">
          <mxGeometry x="815" y="450" width="130" height="30" as="geometry" />
        </mxCell>
        <mxCell id="hMFui25325vpyBuBLBgp-133" value="送受信日時表示" style="rounded=0;whiteSpace=wrap;html=1;fillColor=#FFFFFF;strokeColor=#000000;" vertex="1" parent="1">
          <mxGeometry x="815" y="490" width="130" height="30" as="geometry" />
        </mxCell>
      </root>
    </mxGraphModel>
  </diagram>
</mxfile>
